<?xml version="1.0" encoding="UTF-8" standalone="no"?>
<!-- Created with Inkscape (http://www.inkscape.org/) -->

<svg
   width="1080"
   height="720"
   viewBox="0 0 285.74999 190.50001"
   version="1.1"
   id="svg5"
   inkscape:version="1.1.2 (b8e25be833, 2022-02-05)"
   sodipodi:docname="video_img.svg"
   xmlns:inkscape="http://www.inkscape.org/namespaces/inkscape"
   xmlns:sodipodi="http://sodipodi.sourceforge.net/DTD/sodipodi-0.dtd"
   xmlns="http://www.w3.org/2000/svg"
   xmlns:svg="http://www.w3.org/2000/svg">
  <sodipodi:namedview
     id="namedview7"
     pagecolor="#ffffff"
     bordercolor="#999999"
     borderopacity="1"
     inkscape:pageshadow="0"
     inkscape:pageopacity="0"
     inkscape:pagecheckerboard="0"
     inkscape:document-units="mm"
     showgrid="false"
     inkscape:zoom="0.90583672"
     inkscape:cx="831.27564"
     inkscape:cy="586.19836"
     inkscape:window-width="2560"
     inkscape:window-height="1369"
     inkscape:window-x="-8"
     inkscape:window-y="-8"
     inkscape:window-maximized="1"
     inkscape:current-layer="layer1"
     units="px"
     width="1080px" />
  <defs
     id="defs2" />
  <g
     inkscape:label="Calque 1"
     inkscape:groupmode="layer"
     id="layer1">
    <path
       style="fill:#000000;stroke-width:1"
       d="M 27.233159,188.76906 C 18.940386,187.5553 11.975462,180.904 10.434675,172.72781 9.7105153,168.88562 9.7105153,21.669598 10.434675,17.827415 12.01873,9.4221387 18.885528,3.0301816 27.701384,1.7552097 c 4.282234,-0.618852 226.065006,-0.618852 230.347236,0 8.81586,1.2753142 15.68275,7.666929 17.26671,16.0722053 0.72415,3.842183 0.72415,151.058205 0,154.900395 -1.58405,8.40526 -8.45085,14.79722 -17.26671,16.07219 -3.90836,0.56586 -226.947345,0.53509 -230.815461,-0.0342 z m 27.343077,-23.37175 v -9.34929 H 38.994086 23.411952 v 9.34929 9.34928 h 15.582134 15.58215 z m 51.940454,0 v -9.34929 H 90.934549 75.352417 v 9.34929 9.34928 h 15.582132 15.582141 z m 51.94045,0 v -9.34929 h -15.58213 -15.58214 v 9.34929 9.34928 h 15.58214 15.58213 z m 51.94046,0 v -9.34929 h -15.58215 -15.58213 v 9.34929 9.34928 h 15.58213 15.58215 z m 51.94045,0 v -9.34929 h -15.58212 -15.58216 v 9.34929 9.34928 h 15.58216 15.58212 z M 117.94358,128.9517 c 3.13835,-1.13 49.2271,-24.38414 51.59708,-26.03264 4.54825,-3.16366 5.80397,-8.280646 2.98658,-12.169842 -0.83169,-1.14881 -2.17558,-2.54892 -2.98658,-3.113067 -2.35601,-1.639446 -48.42098,-24.88418 -51.84802,-26.163598 -7.71422,-2.880056 -14.13874,-0.264978 -16.61952,6.7672 -1.174788,3.329663 -1.174788,50.746037 0,54.075697 1.53534,4.3518 4.39692,6.9573 8.55999,7.79395 2.32602,0.4667 4.72834,0.13677 8.31047,-1.15736 z M 55.496907,25.54751 55.355014,16.068473 39.902722,15.93171 24.450444,15.794948 v 9.616824 9.616649 h 15.593844 15.59386 z m 51.940463,0 -0.14189,-9.479037 L 91.843202,15.93171 76.390909,15.794948 v 9.616824 9.616649 h 15.593859 15.593862 z m 51.94044,0 -0.14189,-9.479037 -15.45229,-0.136763 -15.45228,-0.136762 v 9.616824 9.616649 h 15.59384 15.59386 z m 51.94046,0 -0.14188,-9.479037 -15.45228,-0.136763 -15.4523,-0.136762 v 9.616824 9.616649 h 15.59387 15.59386 z m 51.94045,0 -0.14189,-9.479037 -15.45229,-0.136763 -15.45227,-0.136762 v 9.616824 9.616649 h 15.59385 15.59384 z"
       id="path854" />
  </g>
</svg>
